HIERARCHY
ROOT WRIST
{
	OFFSET 0.000000 0.000000 0.000000
	CHANNELS 6 Xposition Yposition Zposition Yrotation Xrotation Zrotation
	JOINT THUMB_CMC_FE
	{
		OFFSET -0.225143 0.117753 -0.062308
		CHANNELS 3 Yrotation Xrotation Zrotation
		JOINT THUMB_CMC_AA
		{
			OFFSET -0.212856 -0.150507 0.098851
			CHANNELS 3 Yrotation Xrotation Zrotation
			JOINT THUMB_MCP_FE
			{
				OFFSET 0.322503 -0.167445 -0.031436
				CHANNELS 3 Yrotation Xrotation Zrotation
				JOINT THUMB_IP_FE
				{
					OFFSET -0.295233 -0.236404 0.025845
					CHANNELS 3 Yrotation Xrotation Zrotation
					End Site
					{
						OFFSET 0.000000 0.000000 0.000000
					}
				}
			}
		}
	}
	JOINT INDEX_MCP
	{
		OFFSET -1.076913 0.264198 -0.014768
		CHANNELS 3 Yrotation Xrotation Zrotation
		JOINT INDEX_PIP_FE
		{
			OFFSET -0.425053 0.013289 0.013619
			CHANNELS 3 Yrotation Xrotation Zrotation
			JOINT INDEX_DIP_FE
			{
				OFFSET -0.271505 -0.024898 0.000550
				CHANNELS 3 Yrotation Xrotation Zrotation
				End Site
				{
					OFFSET 0.000000 0.000000 0.000000
				}
			}
		}
	}
	JOINT MIDDLE_MCP
	{
		OFFSET -1.072991 0.019362 0.038780
		CHANNELS 3 Yrotation Xrotation Zrotation
		JOINT MIDDLE_PIP_FE
		{
			OFFSET -0.480704 0.002618 0.028696
			CHANNELS 3 Yrotation Xrotation Zrotation
			JOINT MIDDLE_DIP_FE
			{
				OFFSET -0.307486 -0.031129 -0.000643
				CHANNELS 3 Yrotation Xrotation Zrotation
				End Site
				{
					OFFSET 0.000000 0.000000 0.000000
				}
			}
		}
	}
	JOINT RING_MCP
	{
		OFFSET -0.994992 -0.195930 -0.005938
		CHANNELS 3 Yrotation Xrotation Zrotation
		JOINT RING_PIP_FE
		{
			OFFSET -0.436995 0.003792 0.019994
			CHANNELS 3 Yrotation Xrotation Zrotation
			JOINT RING_DIP_FE
			{
				OFFSET -0.295558 -0.038341 -0.006642
				CHANNELS 3 Yrotation Xrotation Zrotation
				End Site
				{
					OFFSET 0.000000 0.000000 0.000000
				}
			}
		}
	}
	JOINT PINKY_MCP
	{
		OFFSET -0.873858 -0.393246 -0.086282
		CHANNELS 3 Yrotation Xrotation Zrotation
		JOINT PINKY_PIP_FE
		{
			OFFSET -0.343972 -0.016492 0.013445
			CHANNELS 3 Yrotation Xrotation Zrotation
			JOINT PINKY_DIP_FE
			{
				OFFSET -0.224713 -0.036309 -0.010265
				CHANNELS 3 Yrotation Xrotation Zrotation
				End Site
				{
					OFFSET 0.000000 0.000000 0.000000
				}
			}
		}
	}
}
MOTION
Frames: 18
Frame Time: 0.008333334
-0.356569 0.899010 3.221395 -59.469480 63.829220 -44.539860 -61.461180 4.834472 -64.263610 -119.352900 -30.976900 4.410652 112.864000 -65.843230 24.758600 -4.562073 -8.459839 6.987917 171.924400 3.386383 175.459000 41.978180 -86.125610 12.300510 2.052625 1.705001 8.887918 176.032400 -1.155914 156.005400 39.239810 -88.411190 31.972270 6.002534 4.395452 27.278610 165.291500 -8.937836 156.472600 31.479760 -85.617800 45.802380 -0.199310 0.562909 19.986960 153.823500 -19.793730 151.339000 48.977550 -83.530670 6.424457 -5.539795 0.809159 65.810010 
-0.354667 0.901031 3.221776 -60.638640 63.756390 -45.172000 -61.461180 4.834475 -64.379150 -119.352900 -30.976900 4.489102 112.864000 -65.843230 24.629510 -4.562103 -8.459839 7.225013 172.633700 3.394842 175.789500 41.977890 -86.125670 13.361010 2.052632 1.705005 9.167540 175.926900 -1.166229 156.087500 39.238970 -88.411440 32.029690 6.002533 4.395455 27.728750 164.949500 -9.009796 156.703800 31.479130 -85.617860 45.399200 -0.199310 0.562912 20.224120 152.144200 -20.080660 151.999100 48.977360 -83.530550 4.812345 -5.539825 0.809153 63.147020 
-0.355949 0.899883 3.223982 -61.874080 63.361620 -45.848210 -61.461180 4.834468 -64.164460 -119.352900 -30.976900 4.941072 112.864100 -65.843200 24.064280 -4.562103 -8.459839 7.216368 173.678800 3.406372 176.028600 41.977760 -86.125550 14.504510 2.052634 1.704998 9.678568 176.214200 -1.138184 156.043200 39.239600 -88.411560 32.276350 6.002525 4.395452 28.246260 164.933500 -9.013184 157.084200 31.479330 -85.617800 45.152280 -0.199310 0.562920 20.645840 149.865800 -20.442930 153.138800 48.977450 -83.530610 2.585855 -5.539795 0.809150 60.528900 
-0.355568 0.900235 3.221043 -62.895810 63.193870 -46.657810 -61.461180 4.834478 -64.182100 -119.352900 -30.976900 5.280699 112.864000 -65.843200 24.450960 -4.562073 -8.459839 6.414248 173.619100 3.405721 175.838500 41.977900 -86.125670 14.585810 2.052631 1.705002 9.831841 176.228500 -1.136810 155.706500 39.240380 -88.411190 32.455300 6.002511 4.395433 28.494590 164.657400 -9.071014 156.701400 31.479690 -85.617650 44.710160 -0.199310 0.562904 21.495110 147.626300 -20.768650 153.842100 48.977560 -83.530580 0.875671 -5.539795 0.809193 59.783700 
-0.354749 0.900104 3.220737 -63.465390 62.897080 -46.853550 -61.461210 4.834460 -64.421840 -119.352900 -30.976900 5.493729 112.864100 -65.843230 24.570960 -4.562103 -8.459839 5.954215 173.314800 3.402475 176.277500 41.978150 -86.125700 14.432710 2.052623 1.704983 9.552294 176.146300 -1.144806 155.872200 39.240250 -88.411320 32.715330 6.002510 4.395454 28.675030 164.116000 -9.183807 156.993800 31.479530 -85.617800 44.078590 -0.199310 0.562896 22.354940 143.998500 -21.231870 155.828000 48.977430 -83.530550 -1.502411 -5.539795 0.809170 58.598020 
-0.356498 0.897159 3.221940 -64.050900 62.183160 -47.007390 -61.461180 4.834465 -64.508850 -119.352900 -30.976900 5.997445 112.864100 -65.843230 24.185080 -4.562103 -8.459839 6.057341 174.066800 3.410336 176.899000 41.977990 -86.125610 15.186020 2.052633 1.704999 9.410884 176.733500 -1.087494 156.461500 39.240420 -88.411440 33.303890 6.002512 4.395428 29.328560 164.176500 -9.171234 157.917900 31.479300 -85.617860 43.980300 -0.199310 0.562927 22.488170 140.065300 -21.643770 159.029600 48.977540 -83.530610 -4.381531 -5.539795 0.809157 59.518170 
-0.353582 0.900637 3.219927 -64.280270 62.017310 -47.001980 -61.461180 4.834465 -64.703430 -119.352900 -30.976930 5.856070 112.864100 -65.843200 24.180320 -4.562103 -8.459869 5.754502 174.061600 3.410277 177.238800 41.977980 -86.125610 15.350890 2.052635 1.705001 9.511228 176.977200 -1.063629 156.719500 39.239410 -88.411440 33.681390 6.002522 4.395431 29.466060 164.068400 -9.193665 158.315700 31.479280 -85.617800 43.578320 -0.199310 0.562949 22.477970 136.588600 -21.929260 161.253400 48.977420 -83.530580 -6.343231 -5.539795 0.809173 61.350400 
-0.350802 0.904350 3.217227 -64.343510 61.912140 -47.017120 -61.461180 4.834456 -64.654050 -119.352900 -30.976900 5.664343 112.864000 -65.843230 24.179980 -4.562073 -8.459839 5.411222 174.208300 3.411766 177.226600 41.977850 -86.125550 15.702590 2.052633 1.705015 9.498521 177.206700 -1.041199 156.594800 39.239770 -88.411190 34.003950 6.002539 4.395446 29.097450 163.636800 -9.282898 158.305300 31.479650 -85.617800 43.044650 -0.199310 0.562903 22.312110 133.202500 -22.136230 163.042000 48.977460 -83.530580 -7.822998 -5.539825 0.809156 63.445350 
-0.350034 0.906221 3.217619 -64.592680 61.488170 -47.078550 -61.461180 4.834470 -64.698850 -119.352900 -30.976900 5.615306 112.864100 -65.843260 24.047970 -4.562103 -8.459839 5.626348 175.363700 3.422533 177.334700 41.977820 -86.125670 16.733750 2.052626 1.705004 10.182210 178.097300 -0.953888 156.758300 39.240110 -88.411440 34.943790 6.002529 4.395452 28.794940 163.672100 -9.275635 158.856100 31.479250 -85.617680 42.436730 -0.199310 0.562937 22.938200 131.402900 -22.217650 164.674100 48.977540 -83.530580 -11.542630 -5.539795 0.809175 66.226080 
-0.348056 0.909737 3.217164 -64.849030 61.465930 -47.224910 -61.461180 4.834476 -64.367310 -119.352900 -30.976900 5.233552 112.864100 -65.843230 23.941250 -4.562073 -8.459839 5.530681 175.787200 3.426124 177.126700 41.978000 -86.125610 17.495980 2.052618 1.705000 10.621710 178.198600 -0.943939 156.757000 39.240110 -88.411440 34.496070 6.002519 4.395435 28.885060 163.836200 -9.241760 158.634700 31.479190 -85.617800 42.078770 -0.199310 0.562925 25.164380 130.237400 -22.259770 165.478100 48.977380 -83.530610 -14.516480 -5.539795 0.809183 67.789720 
-0.348127 0.911033 3.216855 -65.050480 61.092700 -47.356020 -61.461180 4.834475 -64.255430 -119.352900 -30.976900 5.082140 112.864100 -65.843260 23.919780 -4.562103 -8.459839 5.364480 176.862900 3.434417 176.518100 41.978140 -86.125610 18.628100 2.052619 1.704998 11.180230 178.689700 -0.895691 156.595800 39.240130 -88.411190 34.689950 6.002509 4.395431 28.752820 164.110200 -9.184998 158.628700 31.479350 -85.617830 41.515950 -0.199310 0.562932 26.668110 129.996000 -22.267460 166.150700 48.977590 -83.530610 -15.088470 -5.539825 0.809174 70.286090 
-0.346638 0.912473 3.217545 -65.606050 60.818400 -47.637510 -61.461180 4.834472 -64.123930 -119.352900 -30.976900 4.871896 112.864000 -65.843230 23.485750 -4.562073 -8.459808 5.692810 178.435900 3.444424 176.243700 41.977750 -86.125550 20.001870 2.052633 1.704987 12.163130 179.354100 -0.830292 156.847300 39.239800 -88.411440 34.910320 6.002537 4.395466 29.259690 164.627000 -9.077362 159.166600 31.479200 -85.617740 41.218470 -0.199310 0.562930 27.578400 129.756900 -22.274720 167.526000 48.977400 -83.530670 -17.532380 -5.539795 0.809187 73.139490 
-0.346512 0.915123 3.216114 -66.074980 60.695780 -48.002320 -61.461180 4.834475 -64.101290 -119.352900 -30.976900 4.522943 112.864000 -65.843230 23.550660 -4.562103 -8.459839 5.678711 -179.915500 3.452087 175.559300 41.977820 -86.125550 21.918210 2.052617 1.704994 13.800080 179.839700 -0.782410 156.627400 39.239610 -88.411190 35.694910 6.002515 4.395446 29.321320 164.588000 -9.085510 159.133800 31.479290 -85.617800 40.590350 -0.199310 0.562922 28.252080 129.547500 -22.280790 168.052900 48.977480 -83.530640 -18.766940 -5.539795 0.809170 75.426670 
-0.345934 0.917078 3.215893 -66.635800 60.648080 -48.342560 -61.461180 4.834456 -63.938510 -119.352900 -30.976930 4.157946 112.864000 -65.843230 23.199580 -4.562103 -8.459839 5.781312 -178.318900 3.456782 174.976900 41.977920 -86.125550 23.926340 2.052622 1.704992 15.359500 179.941700 -0.772339 156.505300 39.239640 -88.411440 35.669400 6.002528 4.395438 29.268170 164.643500 -9.073914 159.218500 31.479310 -85.617800 40.290060 -0.199310 0.562917 28.691500 128.872600 -22.298550 169.225500 48.977620 -83.530610 -21.321260 -5.539825 0.809161 77.744650 
-0.344724 0.919614 3.215394 -67.916500 60.908970 -49.257110 -61.461180 4.834478 -63.627620 -119.352900 -30.976900 3.510301 112.864000 -65.843230 22.813260 -4.562073 -8.459839 5.927569 -176.467800 3.458906 174.484300 41.977790 -86.125550 25.890530 2.052625 1.704998 16.580900 -179.638000 -0.730835 156.510800 39.239700 -88.411560 35.859760 6.002540 4.395460 29.189830 164.427300 -9.119080 158.545100 31.479460 -85.617800 39.158360 -0.199310 0.562923 29.928530 129.324200 -22.286960 169.438800 48.977480 -83.530580 -22.026580 -5.539795 0.809184 79.692770 
-0.344112 0.920690 3.214892 -67.876040 60.595050 -49.111420 -61.461180 4.834470 -63.775880 -119.352900 -30.976900 3.058285 112.864000 -65.843200 22.867510 -4.562073 -8.459839 5.512418 -174.526400 3.457247 174.363000 41.977860 -86.125610 27.865980 2.052628 1.705004 18.028310 179.974000 -0.769135 156.460100 39.239730 -88.411190 35.165930 6.002522 4.395449 29.211360 164.394400 -9.125916 159.245200 31.479340 -85.617800 38.875210 -0.199310 0.562933 28.635220 128.483600 -22.307460 170.736800 48.977420 -83.530610 -24.409580 -5.539795 0.809186 82.268420 
-0.342916 0.922446 3.212578 -68.241940 60.558660 -49.436310 -61.461180 4.834455 -63.715520 -119.352900 -30.976930 2.593209 112.864000 -65.843230 23.025720 -4.562073 -8.459839 5.210963 -173.489800 3.454739 174.534500 41.977940 -86.125550 29.092010 2.052625 1.705002 19.085500 179.789200 -0.787384 156.116200 39.239630 -88.411190 34.716610 6.002523 4.395441 29.447700 164.516100 -9.100555 158.796000 31.479570 -85.617800 38.907330 -0.199310 0.562925 31.694980 127.513300 -22.325740 171.082200 48.977480 -83.530580 -26.848970 -5.539825 0.809180 84.700780 
-0.343973 0.921225 3.212586 -68.740110 60.284450 -49.797970 -61.461180 4.834473 -63.814610 -119.352900 -30.976900 2.135274 112.864100 -65.843230 23.313680 -4.562073 -8.459839 4.882195 -172.807500 3.452469 174.628600 41.977900 -86.125610 30.239480 2.052625 1.704999 19.163940 179.816300 -0.784729 155.869400 39.239960 -88.411190 34.461570 6.002525 4.395448 30.292730 164.334600 -9.138367 158.627700 31.479570 -85.617800 38.513970 -0.199310 0.562913 31.592430 127.134100 -22.331330 171.155600 48.977500 -83.530580 -28.042480 -5.539825 0.809165 86.969160 
